<?xml version="1.0" encoding="UTF-8"?>
<svg id="Layer_1" data-name="Layer 1" xmlns="http://www.w3.org/2000/svg" viewBox="0 0 887 236">
  <g>
    <path d="m16.9,114.12c-1.88,6.9-2.11,13.92-.73,20.32,1.38,6.33,4.37,12.08,8.9,16.56,7.32,7.32,18.87,11.5,34.47,9.86,15.38-1.61,31.9-8.71,46.51-18.18,16.34-10.54,30.25-24.04,37.58-36.27,4.68-7.75,7.63-15.34,8.55-22.05.73-5.29.19-10.01-1.76-13.73-1.88-3.57-5.18-6.33-10.05-7.86v-.04c-4.37-1.38-9.97-1.8-16.91-1.04-6.98.77-14.07,2.22-20.9,3.6-11.27,2.26-22.01,4.45-30.87,3.49-6.37-.69-10.74-2.91-13.31-6.06-2.22-2.68-3.11-6.02-2.88-9.55.23-3.34,1.5-6.9,3.53-10.31,4.75-8.01,14.07-15.84,25.46-19.33,9.62-2.95,17.06-2.57,21.82-.27,2.61,1.27,4.45,3.11,5.56,5.33s1.42,4.79.88,7.48c-.96,4.83-4.68,10.2-11.43,14.84-1.19.81-2.84.5-3.64-.69-.84-1.19-.54-2.84.69-3.68,5.48-3.76,8.51-7.9,9.2-11.47.31-1.57.15-2.95-.42-4.14-.58-1.19-1.65-2.19-3.14-2.91-3.68-1.8-9.74-1.96-17.98.58-10.08,3.07-18.29,9.93-22.47,16.95-1.61,2.76-2.61,5.52-2.8,7.98-.15,2.26.38,4.29,1.69,5.87,1.73,2.11,4.91,3.64,9.82,4.18,8.09.84,18.41-1.23,29.26-3.45,7.02-1.42,14.3-2.88,21.36-3.64,7.71-.88,14.03-.34,19.06,1.27v-.04c6.29,1.99,10.62,5.68,13.15,10.51,2.45,4.72,3.14,10.51,2.3,16.87-1.04,7.4-4.22,15.68-9.24,24-7.75,12.88-22.28,27.03-39.23,38-15.26,9.89-32.59,17.29-48.85,18.98-17.33,1.84-30.33-2.95-38.73-11.31-5.25-5.25-8.74-11.92-10.31-19.21-1.57-7.21-1.3-15.07.81-22.81,4.22-15.49,15.95-30.6,35.35-39.27,1.34-.58,2.91.04,3.49,1.34.58,1.34,0,2.88-1.34,3.49-17.87,7.94-28.61,21.74-32.44,35.81Z"/>
    <path d="m155.69,128.65c-.65,2.03-2.34,8.78.54,10.31.5.31,1.19.38,1.96.23,2.07-.34,4.68-2.03,7.36-5.21,1.5-1.8,3.11-3.99,4.75-6.33,1.34-1.96,1.42-3.45,1.57-5.75.27-3.8,1.34-7.94,2.8-11.73,1.61-4.26,3.76-8.17,5.75-10.66,5.21-6.48,12-3.14,9.36,4.06-1.19,3.37-4.91,10.58-9.28,17.87-.65,1.07-1.34,2.19-1.99,3.26-.69,1.07-1.3,2.34-.73,3.57.54,1.15,1.42,1.73,2.53,1.84,1.57.19,3.57-.27,5.75-1.15,5.83-2.26,12.23-7.02,16.07-10.58,2.03-1.88,5.75,1.84,3.57,3.87-4.14,3.87-11.24,9.09-17.72,11.62-2.95,1.19-5.79,1.76-8.28,1.46-2.45-.27-4.49-1.34-5.94-3.49-1.42,2.03-2.84,3.91-4.18,5.52-3.53,4.22-7.29,6.48-10.51,7.02-1.96.34-3.8.08-5.33-.77-5.79-3.11-4.72-11.46-3.03-16.56,1.38-4.26,3.49-8.59,5.1-11.96.73-1.42,1.34-2.76,1.69-3.53,1.19-2.76,6.1-.84,4.83,2.07-.5,1.19-1.11,2.38-1.76,3.76-1.57,3.22-3.57,7.36-4.87,11.27Zm24.12-16.6c1.38-2.49,2.57-4.75,3.45-6.67,1.3-2.68,1.19-2.76-.35-.19-1.19,1.92-2.34,4.29-3.34,6.86-.58,1.65-.46,1.27.23,0Z"/>
    <path d="m207.39,113.66c1.27.69,1.76,2.3,1.07,3.57-.88,1.61-1.8,3.72-2.65,5.94-.92,2.42-1.73,4.87-2.3,6.94-.84,3.22-.92,5.6-.46,7.13.23.77.61,1.27,1.07,1.53.5.31,1.19.42,1.99.35,1.69-.19,3.22,3.64.54,4.75-1.76.77-3.72.34-5.21-.58-1.57-.92-2.76-2.45-3.41-4.49-.77-2.45-.73-5.79.42-10.05.61-2.34,1.46-4.98,2.42-7.48.92-2.34,1.92-4.64,2.95-6.56.69-1.27,2.26-1.76,3.57-1.07Zm.81-9.09c.88-2.07,1.99-4.56,3.14-7.06,1.15-2.57,2.38-5.18,3.41-7.36,1.76-3.64,6.44-1.27,4.87,2.07-1.04,2.15-2.3,4.87-3.53,7.48-1.19,2.68-2.42,5.37-3.3,7.48-1.27,2.95-6.52,1.88-4.6-2.61Z"/>
    <path d="m256.01,71.14c-.34.03-.69,0-1.07,0-1.24-.02-1.94.02-2.53.19-.65.19-1.19.84-1.69,1.92-4.83,10.7-10.01,22.62-15.53,35.81-1.96,4.72-4.29,10.51-6.98,17.33-2.72,6.86-4.98,13.15-6.79,18.94-.88,2.84-1.46,5.25-1.69,7.21v.04c-.19,1.88-.15,3.26.12,4.18v.04s0,.04-.04.08t-.08.08h-.04c.73.12,1.34.46,1.76,1.04.42.58.58,1.23.5,1.96-.11.73-.46,1.3-1.04,1.72s-1.23.61-1.96.5c-2.11-.31-3.49-1.61-4.18-3.87-.46-1.61-.58-3.72-.31-6.29.23-2.03.81-4.56,1.73-7.63,1.96-6.21,4.37-13.04,7.32-20.52,2.95-7.44,5.45-13.65,7.55-18.64,4.87-11.62,9.47-22.24,13.8-31.87.08-.15.15-.31.19-.42.42-.81.58-1.34.42-1.61-.19-.27-.92-.38-2.19-.38-10.85-.19-21.05-.19-30.56-.08-.73,0-1.34-.23-1.84-.73-.5-.5-.81-1.11-.84-1.88.04-.73.27-1.38.77-1.88.49-.49,1.15-.73,1.84-.77,10.31-.15,21.36-.12,33.13.11.88.04,1.5,0,1.92-.11.42-.12.73-.31.92-.58s.42-.69.61-1.27c.11-.34.31-.73.54-1.23,1.65-3.6,3.3-7.21,4.98-10.81.31-.65.77-1.73,1.46-3.18.69-1.46,1.38-2.95,2.15-4.49,2.99-6.14,5.64-11.35,7.98-15.72.69-1.11,1.53-1.73,2.53-1.8,1-.04,1.76.31,2.3,1.11.54.81.46,1.96-.19,3.37-1.34,2.49-2.99,5.64-4.91,9.43-1.69,3.34-3.37,6.83-5.14,10.51-1.73,3.72-3.53,7.52-5.33,11.47-.08.19-.15.35-.23.5-.31.58-.7,1.34-.61,2.03.09.62,1.17.75,1.64.82.71.11,1.43.1,2.15.09.5,0,1.19-.1,1.51.38.48.74.07,1.89-.28,2.6-.33.67-.8,1.29-1.41,1.72-.75.53-1.51.49-2.39.56Z"/>
    <path d="m247.16,119.37c1.73-4.18,3.3-7.98,4.75-11.39.23-.5.46-1,.65-1.5,5.48-13.08,11.2-26.15,17.06-39.15,3.07-6.83,6.1-13.65,9.09-20.48,2.38-5.48,4.87-10.85,7.48-16.07.35-.65.88-1.07,1.57-1.3.65-.19,1.34-.15,1.99.15.65.35,1.07.88,1.3,1.53.19.65.15,1.34-.15,2.03-2.57,5.14-5.02,10.35-7.32,15.61-2.95,6.79-5.98,13.54-9.01,20.32-5.87,13.04-11.58,26.15-17.14,39.3-.31.73-.61,1.5-.96,2.3-1.42,3.3-2.84,6.83-4.33,10.58-.61,1.61-1.19,3.18-1.73,4.72-.38,1.11-.73,2.22-1,3.34-.58,2.26-.73,4.29-.54,6.1.19,1.38.77,2.38,1.76,2.95.35.19.73.31,1.15.42.92.27,2.07.19,3.45-.23,1.57-.5,3.45-1.61,5.64-3.34,2.34-1.92,4.6-3.95,6.71-6.1,2.11-2.11,4.18-4.29,6.21-6.48.15-.19.31-.35.5-.54,1.07-1.15,2.19-2.34,3.37-3.57.5-.5,1.11-.77,1.84-.81.69,0,1.3.27,1.88.77.5.5.77,1.11.81,1.8,0,.73-.27,1.34-.77,1.92l-3.8,4.03c-2.11,2.3-4.29,4.56-6.48,6.79-2.22,2.22-4.56,4.33-6.98,6.29-2.72,2.15-5.14,3.57-7.32,4.22-2.38.73-4.49.88-6.33.38-.88-.23-1.65-.54-2.34-.92h-.04c-2.65-1.57-4.14-3.83-4.49-6.83-.19-1.76-.19-3.57.11-5.48.54-3.41,1.65-7.21,3.37-11.39Z"/>
    <path d="m272.47,129.8c1.34-4.87,4.52-10.12,8.28-13.88,3.64-3.68,7.94-6.06,12-5.68,1.34.15,2.61.58,3.76,1.3.96.61,1.34.61,1.96-.38.81-1.23,2.42-1.57,3.64-.81,1.27.81,1.61,2.42.84,3.64-1.19,1.84-2.76,4.6-4.14,7.67-1.07,2.34-2.03,4.87-2.72,7.29-.96,3.53-1.04,6.1-.5,7.78.31.96.81,1.57,1.42,1.92.73.42,1.73.54,2.84.42,2.34-.23,5.1-1.53,7.63-3.6,2.8-2.22,6.86-6.44,11.04-10.74,2.99-3.07,6.52-6.67,9.28-9.32,7.9-7.48,15.91-6.67,16.76,1.84.38,4.03,1.34,4.41,3.83,1.57,2.34-2.68,4.56-5.02,6.48-6.52,1.42-1.07,2.76-1.69,3.95-1.92h.04c1.65-.34,3.11,0,4.29.73,1.15.73,2.03,1.84,2.42,3.41h.04c.31,1.27.35,2.84-.08,4.79-.35,1.53-.88,3.41-1.46,5.33-.54,1.96-1.15,4.06-1.53,5.87-.27,1.23-.42,2.34-.5,3.3-.08,1.84.23,3.22.73,4.1.38.65.96,1.04,1.61,1.19.19.04.38.08.54.08.84.04,1.76-.19,2.84-.69,1.27-.58,2.72-1.5,4.33-2.72,4.56-3.41,9.82-8.93,13.73-13.04,1.57-1.61,2.91-3.03,3.99-4.06,1.04-1.04,2.68-1,3.72.04,1,1.04,1,2.72-.08,3.72-.96.96-2.3,2.34-3.8,3.95-4.06,4.22-9.47,9.89-14.38,13.57-1.96,1.46-3.72,2.61-5.33,3.34-1.84.84-3.53,1.23-5.21,1.15h-.04c-.5-.04-.96-.08-1.42-.19-2.07-.42-3.83-1.65-5.02-3.64-1.04-1.73-1.57-4.06-1.46-7.02.08-1.27.27-2.68.58-4.18.42-1.96,1.07-4.14,1.69-6.21.5-1.8,1-3.57,1.3-4.95.23-1.11.27-1.88.15-2.38v-.04c-.04-.15-.12-.23-.15-.27-.08-.04-.27-.08-.46-.04-.5.12-1.07.42-1.76.96-6.52,5.06-18.18,22.28-21.09,26.61-1.23,1.8-2.38,1.34-3.45,1-1.27-.42-2.34-1.23-1.46-3.49,1.15-2.95,2.84-7.25,4.6-11.47,1.38-3.37,2.68-6.86,2.68-10.62-.04-4.37-2.91-4.06-7.98.73-2.72,2.57-6.21,6.14-9.16,9.16-4.29,4.45-8.47,8.74-11.5,11.16-3.3,2.68-7.06,4.37-10.39,4.75-2.15.23-4.18-.12-5.91-1.04-1.8-1-3.18-2.65-3.91-4.95-.81-2.57-1.23-3.26-2.8-1.27-8.05,10.08-18.83,5.37-15.3-7.29Zm11.16,3.99c3.37-4.22,7.21-10.39,10.35-15.53.42-.69.58-1.57-.12-2.15-.46-.34-1.04-.58-1.61-.61-2.34-.23-5.18,1.5-7.78,4.14-3.14,3.18-5.83,7.55-6.94,11.58-2.07,7.44,2.03,7.71,6.1,2.57Z"/>
    <path d="m384.07,129.84c1.34-4.87,4.52-10.12,8.28-13.88,3.64-3.68,7.94-6.06,12-5.67,1.46.15,2.91.65,4.14,1.53.58.46.73.58,1.15-.12.23-.34.23-.31.42-.61,1.61-2.42,5.98.35,4.22,3.18-1.27,2.07-2.49,4.29-3.49,6.52-1.04,2.15-1.99,4.52-2.72,6.86-1.23,3.87-1.38,6.79-.81,8.74.31,1,.81,1.69,1.42,2.11.69.42,1.61.58,2.68.5,2.19-.19,4.91-1.42,7.75-3.72,4.75-3.8,8.86-8.21,12.96-12.58,1.23-1.3,2.49-2.68,3.83-4.1,1.04-1.04,2.68-1.07,3.72-.04,1.07,1,1.11,2.65.08,3.72l-3.8,4.03c-4.29,4.56-8.59,9.16-13.5,13.08-3.64,2.99-7.4,4.6-10.62,4.87-2.22.19-4.26-.27-5.91-1.34-1.73-1.07-2.99-2.76-3.68-5.02-.81-2.72-.88-3.22-2.84-.77-2.49,3.11-5.29,4.87-7.75,5.33-1.57.27-3.07.12-4.33-.5-1.3-.65-2.38-1.73-3.07-3.18-1-2.11-1.19-5.18-.15-8.93Zm11.16,3.99c3.3-4.14,7.06-10.16,10.16-15.22.54-.84,1-1.69.08-2.45-.46-.35-1.04-.58-1.61-.61-2.34-.23-5.18,1.5-7.78,4.1-3.14,3.18-5.83,7.59-6.94,11.62-2.03,7.25,1.88,7.86,6.1,2.57Z"/>
    <path d="m566.1,126.04c-.92.96-1.23,1.96-.04,2.84,1.46,1.07,3.11,1.88,4.91,2.42,3.3,1.04,7.13,1.23,11.24.61,8.47-1.27,17.6-6.06,27-13.5,1.15-.92,2.8-.73,3.68.42.92,1.11.73,2.76-.42,3.68-10.12,8.01-20.13,13.19-29.49,14.57-4.91.69-9.47.46-13.54-.81-2.57-.77-4.87-1.96-6.94-3.53-1.27-1-2.03-1.07-3.22.04-10.2,9.85-20.44,18.25-29.72,23.85-23.97,14.42-47.36,4.06-39.23-28.53,3.45-13.8,11.39-29.76,18.56-44.17,7.09-14.23,13.42-26.96,13.65-33.74.08-2.34-.88-3.72-3.34-3.8-1.46-.04-2.57-1.27-2.53-2.68.04-1.46,1.27-2.57,2.68-2.53,6.17.19,8.55,3.57,8.4,9.16-.27,7.98-6.83,21.17-14.19,35.93-5.56,11.2-11.35,23.58-15.18,34.7-.65,1.92-1.27,3.8-1.76,5.64-7.75,26.77,6.17,40.26,30.87,25.15,8.7-5.33,18.33-13.27,27.99-22.55,1.84-1.76,1.42-2.76.42-5.02-1.11-2.42-1.92-5.22-2.38-8.32-1.84-12.65,1.15-27.57,7.06-41.72,6.33-15.3,16.1-29.79,26.65-39.69,8.93-8.36,18.21-12.46,25.42-12.58,3.49-.04,6.59.77,9.01,2.49v-.04c2.49,1.76,4.26,4.37,5.06,7.78,1.27,5.75-.31,13.92-6.17,24.2-9.82,17.26-28.61,42.29-48.74,63.77-1.92,2.03-3.8,3.99-5.71,5.94Zm1.88-9.51c19.86-21.2,38.38-45.82,48.01-62.77,5.18-9.05,6.67-15.91,5.64-20.48-.46-2.07-1.5-3.64-2.95-4.64-1.5-1.04-3.53-1.57-5.91-1.53-6.06.12-14.03,3.72-21.93,11.16h-.04c-10.01,9.39-19.33,23.24-25.38,37.89-5.56,13.34-8.44,27.3-6.71,39,.31,2.07.8,3.99,1.46,5.68.88,2.3,1.42,2.38,3.18.58,1.53-1.57,3.11-3.22,4.64-4.87Z"/>
    <path d="m619.45,137.13c8.97-4.64,18.18-12.04,23.31-16.14,1.34-1.07,2.38-1.92,3.38-2.65,1.15-.84,2.8-.58,3.64.58.88,1.19.61,2.84-.58,3.68-.5.35-1.69,1.3-3.14,2.49-5.29,4.22-14.72,11.77-24.16,16.72-2.53,1.3-4.87,2.07-7.02,2.38-2.65.42-5.06.12-7.02-.73-2.11-.92-3.76-2.45-4.79-4.41-.5-1-.88-2.15-1.07-3.38-.58-3.8.92-8.21,3.45-12.27.08-.19.19-.38.34-.54.42-.65.88-1.3,1.34-1.96,3.68-4.83,8.86-8.9,13.5-10.08,3.14-.81,5.83-.5,7.44.38,1,.54,1.69,1.3,2.07,2.26v.04c.38,1.04.34,2.11-.15,3.26-.69,1.53-2.53,3.22-5.71,4.56-2.65,1.15-5.94,2.38-8.78,3.45-1.27.46-2.49.88-3.57,1.23-1.73.61-3.22,2.07-3.91,3.8-.69,1.84-1.04,3.6-.81,5.1.08.61.27,1.23.54,1.73.46.88,1.19,1.57,2.19,1.99,1.11.46,2.53.61,4.18.34,1.61-.23,3.41-.81,5.33-1.84Zm-.08-19.48c1-.38,1.99-.81,2.84-1.19,2.49-1.04,1.99-1.11-.31-.54-1.88.5-8.32,4.03-2.53,1.73Z"/>
    <path d="m691.43,30.76c-.5.77-1.61,2.84-3.18,6.02-1.69,3.34-3.83,7.9-6.37,13.34l-.5,1.04c-8.17,17.56-17.29,37.08-25,56.18-3.3,8.17-6.75,16.95-9.55,25.65-1.5,4.68-6.1,19.25-4.72,23.81.04.12-.27.15-.15.19,1.46.19,2.45,1.53,2.26,2.95-.19,1.46-1.53,2.45-2.99,2.26-2.11-.31-3.49-1.65-4.18-3.87-.42-1.53-.5-3.41-.38-5.37,1.04-14.38,9.89-35.28,14.96-47.85,7.71-19.1,16.76-38.58,25-56.18l.46-1c2.53-5.45,4.72-10.05,6.4-13.5,1.69-3.34,2.95-5.68,3.68-6.71.8-1.19,2.45-1.46,3.64-.61,1.19.84,1.46,2.45.61,3.64Z"/>
    <path d="m663.15,128.69c-1.5,3.99-2.45,9.7.19,10.12,2.57.42,6.56-3.34,10.35-7.9,4.41-5.29,9.32-12.31,13.08-18.44,2.45-4.03,6.9-.81,5.94,1.5l-3.6,8.82c-11.47,28.03-37.39,91.26-37.73,101.12.38.38.65.88.77,1.46.23,1.42-.77,2.8-2.19,2.99-1.96.34-3.68-1.61-3.76-3.68-1.11-6.56,15.15-47.28,28.03-79.3l1.99-5.02-.31.23c1.11-2.61-.46-3.37-3.07-1.07-3.18,2.88-7.21,5.33-11.2,4.33-4.14-1-6.48-5.75-4.83-12.58.34-1.46.84-2.95,1.42-4.45,1.8-4.72,4.37-9.43,5.67-11.77.69-1.27,2.3-1.73,3.57-1,1.27.69,1.73,2.3,1.04,3.57-1.23,2.19-3.64,6.63-5.37,11.08Z"/>
    <path d="m694.32,135.55v-.04c-.04-.34-.12-.73-.12-1.15-.19-4.79,2.65-10.58,6.6-15.22,3.64-4.33,12.27-11.66,18.98-8.36,1.46.73,2.45,1.84,2.88,3.37.31,1.07.31,2.3-.08,3.6v.04c-.31,1.04-.84,2.19-1.65,3.41-.46.69-1.04,1.46-1.76,2.26-.65.77-1.42,1.53-2.22,2.3-1.07,1-2.72.96-3.72-.08-1-1.07-.96-2.76.12-3.72.73-.69,1.34-1.34,1.84-1.96,2.88-3.3,4.07-6.71-1.26-4.75-2.88,1.04-6.44,4.1-9.13,7.25-3.14,3.76-5.44,8.21-5.33,11.62v.04l.08.61c.08.61.27,1.19.54,1.69.42.84,1.19,1.53,2.15,1.96,1.07.5,2.49.61,4.14.38,1.61-.23,3.41-.8,5.33-1.84,8.9-4.64,18.29-12.12,23.51-16.3,1.34-1.11,2.45-1.99,3.34-2.61,1.15-.88,2.8-.61,3.68.54.84,1.19.58,2.84-.58,3.68-.58.42-1.73,1.34-3.18,2.49-5.33,4.26-14.96,11.96-24.35,16.87-2.49,1.3-4.87,2.07-6.98,2.38-2.65.38-5.02.12-6.98-.73-2.11-.92-3.72-2.42-4.75-4.41-.54-1.04-.88-2.15-1.07-3.34Z"/>
    <path d="m744.87,116.5c-1.04,3.18-1.73,4.41,1.46,1.07,1.34-1.42,2.68-2.65,3.95-3.68,2.68-2.19,5.87-3.57,8.59-3.76,1.65-.12,3.26.15,4.56.88v.04c1.46.77,2.53,2.07,3.07,3.87.58,1.99.5,4.6-.61,7.9l-.04.04c-.73,2.07-1.53,4.22-2.15,6.33-.92,3.26-1,5.71-.46,7.4.27.92.8,1.61,1.42,1.99.65.38,1.57.54,2.65.46,2.22-.23,4.91-1.46,7.75-3.76,4.72-3.8,8.86-8.21,12.92-12.58,1.27-1.3,2.53-2.68,3.87-4.1,1-1.04,2.68-1.07,3.72-.04,1.04,1,1.07,2.65.08,3.72l-3.8,4.03h-.04c-4.26,4.56-8.55,9.16-13.46,13.08-3.64,2.95-7.36,4.56-10.54,4.87-2.19.23-4.22-.19-5.87-1.19h-.04c-1.69-1.04-2.99-2.68-3.68-4.87-.84-2.65-.81-6.17.42-10.43.65-2.26,1.46-4.45,2.26-6.67.77-2.26,1.84-5.94-1.65-5.71-1.73.12-3.8,1.07-5.67,2.57-2.68,2.19-5.87,5.79-8.93,9.66-4.1,5.25-7.98,10.97-10.24,14.72-.27.5-.58.96-.88,1.46-1.27,2.26-5.71.04-4.72-2.26,3.57-8.44,7.32-17.56,11.24-27.03,12-29.18,25.54-62.2,39.11-86.12.69-1.27,2.3-1.73,3.57-1,1.27.69,1.73,2.34,1,3.57-13.42,23.7-26.88,56.52-38.84,85.55Z"/>
    <path d="m799.4,113.81c-1.19,2.84-1.53,4.03,1.38,1.61,1-.84,2.03-1.61,3.03-2.22v-.04c4.33-2.68,7.78-3.57,10.2-3.18,1.61.23,2.84.96,3.68,2.03.81,1.04,1.19,2.34,1.19,3.83-.04,2.53-1.46,5.71-4.22,8.7-2.42,2.61-6.25,5.18-10.81,7.06-2.22.88-2.53,1.19.23,1.38,3.72.27,7.21-.19,10.62-1.23,7.21-2.19,14.11-7.02,21.43-13.34,1.07-.96,2.76-.84,3.68.27.96,1.11.84,2.76-.27,3.72-7.82,6.75-15.3,11.96-23.31,14.38-6.83,2.07-14,2.15-21.97-.46-2.07-.65-2.95-1.07-4.1.88-1.27,2.11-2.34,4.06-3.14,5.71-.12.23-.23.38-.38.57l-.04.04h-.04v.04h-.04v.04l-.04.04h-.04v.04h-.04c-.73.69-1.8.96-2.8.54-1.34-.57-1.99-2.11-1.42-3.45l.34-.84c11.24-26.38,22.97-53.64,32.44-74.93,7.82-17.56,14.11-31.06,17.25-36.62.69-1.27,2.3-1.73,3.57-1,1.27.69,1.73,2.34,1,3.57-3.07,5.44-9.28,18.79-17.03,36.2-6.06,13.57-13.08,29.76-20.36,46.67Zm-1.96,12.73c-.61.81-1.57,2.11.35,1.57,1.42-.38,2.76-.84,4.06-1.38,3.83-1.57,7.02-3.68,8.97-5.75,1.84-1.99,2.76-3.91,2.8-5.21,0-.27-.04-.42-.08-.5-.04-.04-.12-.08-.31-.08-1.3-.19-3.49.46-6.63,2.45-3.03,1.88-6.21,5.18-9.17,8.9Z"/>
    <path d="m875.48,122.94c-4.45,1.46-12.04,1.69-18.48-.54-1.76-.61-3.49-1.38-5.02-2.38-1.42-.88-2.15-.84-2.34.92-.19,2.34-.58,4.87-1.15,7.32-1.88,8.4-6.21,13.46-10.12,15.3-1.96.92-3.91,1.15-5.6.69-4.64-1.3-5.33-6.25-4.52-10.31.46-2.26,1.42-4.95,3.03-7.94h.04c2.07-3.83,4.72-7.9,7.36-11.2,2.15-2.65,4.37-4.91,6.4-6.33,1.04-.65,4.49,0,4.87,1.19.15.19.27.42.34.65,1.42,3.57,4.68,5.83,8.4,7.09,5.37,1.84,11.58,1.69,15.22.54,3.07-.96,4.26,4.18,1.57,4.98Zm-32.71-4.83c-2.49,3.07-4.95,6.86-6.86,10.39-1.5,2.76-2.3,5.02-2.61,6.79-.69,3.87.96,5.25,4.26,2.61,2.3-1.8,4.6-5.37,5.79-10.78.61-2.72,1-5.56,1.19-8.24.19-2.49-.08-2.84-1.76-.77Z"/>
  </g>
  <g>
    <path d="m149.98,216.94v-27.11h10.81c3.68,0,6.74,1.18,9.17,3.54,2.43,2.36,3.64,5.64,3.64,9.83s-1.25,7.53-3.76,10.01c-2.51,2.48-5.53,3.72-9.05,3.72h-10.81Zm3.4-3.2h7.37c2.35,0,4.47-.97,6.37-2.9,1.9-1.93,2.84-4.48,2.84-7.63s-.91-5.63-2.74-7.45c-1.83-1.81-3.98-2.72-6.47-2.72h-7.37v20.7Z"/>
    <path d="m186.21,216.94v-27.11h3.4v27.11h-3.4Z"/>
    <path d="m202.21,203.17c0-4.38,1.25-7.76,3.76-10.15,2.51-2.39,5.66-3.58,9.45-3.58,3.44,0,6.17.85,8.17,2.56,2,1.71,3,3.75,3,6.13h-3.88c0-1.39-.65-2.68-1.94-3.88-1.29-1.2-3.06-1.8-5.31-1.8-2.62,0-4.87.95-6.77,2.86-1.9,1.91-2.84,4.53-2.84,7.87s.94,6.1,2.82,8.13c1.88,2.03,4.14,3.04,6.79,3.04,2.43,0,4.42-.74,5.97-2.22,1.55-1.48,2.46-3.41,2.72-5.79h-9.33v-3.2h13.01v1.92c0,3.66-1.14,6.62-3.42,8.89-2.28,2.27-5.28,3.4-8.99,3.4s-7.01-1.25-9.49-3.76-3.72-5.98-3.72-10.41Z"/>
    <path d="m239.64,216.94v-27.11h3.4v27.11h-3.4Z"/>
    <path d="m254.85,193.04v-3.2h20.22v3.2h-8.41v23.9h-3.4v-23.9h-8.41Z"/>
    <path d="m281.27,216.94l10.77-27.11h3.56l10.89,27.11h-3.6l-2.76-7.13h-12.69l-2.76,7.13h-3.4Zm7.41-10.33h10.17l-5.08-12.89-5.08,12.89Z"/>
    <path d="m318.3,216.94v-27.11h3.4v23.9h13.01v3.2h-16.42Z"/>
    <path d="m356.72,204.25v-1.72h1.64v-1.72h1.72v1.72h1.68v1.72h-1.68v1.68h-1.72v-1.68h-1.64Zm3.4-6.01h5.08v-5.12l4.24,4.28v3.32h-1.8v1.76h-3.32l-4.2-4.24Zm0,10.25l4.2-4.24h3.32v1.76h1.8v3.32l-4.24,4.28v-5.12h-5.08Zm7.61-15.33v-1.72h1.64v-1.68h1.76v1.68h1.72v1.72h-1.72v1.68h-1.76v-1.68h-1.64Zm0,11.09v-1.76h1.72v-1.68h1.76v1.68h1.64v1.76h-1.64v1.68h-1.76v-1.68h-1.72Zm0,11.05v-1.72h1.64v-1.68h1.76v1.68h1.72v1.72h-1.72v1.64h-1.76v-1.64h-1.64Zm3.48-14.57v-3.4l4.16-4.2v5.12h5.08l-4.24,4.24h-3.28v-1.76h-1.72Zm0,8.69v-3.4h1.72v-1.76h3.28l4.24,4.24h-5.08v5.12l-4.16-4.2Zm7.57-5.17v-1.72h1.72v-1.72h1.68v1.72h1.72v1.72h-1.72v1.68h-1.68v-1.68h-1.72Z"/>
    <path d="m406.67,203.17c0-4.38,1.25-7.76,3.76-10.15,2.51-2.39,5.66-3.58,9.45-3.58,3.44,0,6.17.86,8.17,2.58,2,1.72,3,3.76,3,6.11h-3.88c0-1.39-.65-2.68-1.94-3.88-1.3-1.2-3.06-1.8-5.31-1.8-2.62,0-4.87.95-6.77,2.86-1.9,1.91-2.84,4.53-2.84,7.87s.96,6.07,2.88,8.11c1.92,2.04,4.16,3.06,6.73,3.06,2.22,0,4-.67,5.34-2,1.35-1.33,2.02-2.7,2.02-4.08h3.8c0,2.38-1.01,4.48-3.04,6.33-2.03,1.84-4.75,2.76-8.17,2.76-3.76,0-6.91-1.26-9.43-3.78-2.52-2.52-3.78-5.99-3.78-10.39Z"/>
    <path d="m443.7,216.94v-27.11h8.01c3.5,0,6.24.71,8.23,2.12,1.99,1.42,2.98,3.55,2.98,6.41,0,3.95-2.07,6.49-6.21,7.61l6.21,10.97h-4.04l-5.93-10.45c-.27.03-.68.04-1.24.04h-4.6v10.41h-3.4Zm3.4-13.61h4.88c2.19-.03,3.95-.44,5.29-1.24,1.33-.8,2-2.04,2-3.72,0-1.84-.69-3.19-2.06-4.04-1.38-.85-3.22-1.28-5.55-1.28h-4.56v10.29Z"/>
    <path d="m475.52,216.94v-27.11h17.62v3.2h-14.21v7.97h11.81v3.2h-11.81v9.53h14.21v3.2h-17.62Z"/>
    <path d="m503.74,216.94l10.77-27.11h3.56l10.89,27.11h-3.6l-2.76-7.13h-12.69l-2.76,7.13h-3.4Zm7.41-10.33h10.17l-5.08-12.89-5.08,12.89Z"/>
    <path d="m535.16,193.04v-3.2h20.22v3.2h-8.41v23.9h-3.4v-23.9h-8.41Z"/>
    <path d="m564.78,203.17c0-4.27,1.23-7.63,3.68-10.07,2.46-2.44,5.63-3.66,9.53-3.66s7.07,1.22,9.53,3.66c2.46,2.44,3.68,5.8,3.68,10.07s-1.24,7.73-3.7,10.31c-2.47,2.58-5.64,3.86-9.51,3.86s-7.04-1.29-9.51-3.86c-2.47-2.58-3.7-6.01-3.7-10.31Zm3.6,0c0,3.26.93,5.93,2.8,8.03,1.87,2.1,4.14,3.14,6.81,3.14s4.94-1.05,6.81-3.14c1.87-2.1,2.8-4.77,2.8-8.03s-.93-5.83-2.78-7.79c-1.86-1.96-4.13-2.94-6.83-2.94s-4.97.98-6.83,2.94c-1.86,1.96-2.78,4.56-2.78,7.79Z"/>
    <path d="m603.81,216.94v-27.11h8.01c3.5,0,6.24.71,8.23,2.12,1.99,1.42,2.98,3.55,2.98,6.41,0,3.95-2.07,6.49-6.21,7.61l6.21,10.97h-4.04l-5.93-10.45c-.27.03-.68.04-1.24.04h-4.6v10.41h-3.4Zm3.4-13.61h4.88c2.19-.03,3.95-.44,5.29-1.24,1.33-.8,2-2.04,2-3.72,0-1.84-.69-3.19-2.06-4.04-1.38-.85-3.22-1.28-5.55-1.28h-4.56v10.29Z"/>
  </g>
</svg>